<?xml version="1.0" standalone="no"?>
<!DOCTYPE svg PUBLIC "-//W3C//DTD SVG 20010904//EN"
 "http://www.w3.org/TR/2001/REC-SVG-20010904/DTD/svg10.dtd">
<svg version="1.0" xmlns="http://www.w3.org/2000/svg"
 width="460.000000pt" height="460.000000pt" viewBox="0 0 460.000000 460.000000"
 preserveAspectRatio="xMidYMid meet">
<metadata>
Created by potrace 1.11, written by Peter Selinger 2001-2013
</metadata>
<g transform="translate(0.000000,460.000000) scale(0.100000,-0.100000)"
fill="#000000" stroke="none">
<path d="M2464 4585 c-6 -14 -41 -31 -58 -27 -4 2 -14 -2 -21 -8 -7 -6 -51
-27 -97 -47 -46 -19 -114 -49 -153 -65 -38 -17 -86 -32 -105 -35 -19 -2 -57
-8 -85 -12 -27 -5 -214 -7 -415 -5 -390 3 -489 -4 -633 -47 -38 -11 -79 -22
-90 -25 -11 -2 -27 -10 -36 -17 -9 -8 -29 -21 -46 -30 -16 -8 -39 -24 -50 -34
-11 -11 -35 -28 -53 -38 -17 -11 -32 -23 -32 -27 0 -4 -5 -8 -11 -8 -7 0 -45
-30 -86 -67 -41 -38 -82 -72 -90 -78 -23 -15 -68 -58 -72 -70 -2 -5 -16 -28
-31 -50 -32 -47 -72 -146 -94 -232 -9 -34 -26 -84 -37 -110 -25 -57 -45 -130
-54 -197 -3 -27 -10 -57 -15 -66 -5 -9 -16 -56 -26 -106 -29 -154 -17 -477 22
-589 19 -54 18 -61 -6 -34 l-20 24 3 -25 c2 -14 10 -38 19 -55 8 -16 19 -41
23 -55 4 -14 22 -43 39 -65 l31 -40 -27 18 c-51 32 -38 9 73 -136 12 -15 23
-26 26 -23 3 2 12 -2 21 -9 10 -8 36 -28 60 -45 23 -17 40 -35 37 -40 -3 -6
-1 -10 5 -10 7 0 9 -8 5 -19 -11 -35 231 -114 435 -141 252 -33 358 -35 473
-10 34 7 47 4 95 -23 84 -45 85 -47 73 -114 -15 -79 -14 -225 3 -308 16 -81
30 -120 82 -230 21 -44 39 -84 40 -90 4 -19 88 -140 107 -154 15 -11 18 -21
13 -50 -3 -20 -2 -30 3 -23 6 11 10 11 18 0 13 -16 -21 -138 -39 -138 -6 0 -8
-11 -5 -27 4 -21 -5 -43 -37 -93 -24 -36 -64 -101 -91 -145 -26 -44 -54 -87
-61 -96 -10 -11 -14 -55 -16 -155 -3 -139 -3 -139 26 -181 27 -40 60 -58 54
-30 -1 6 4 36 12 65 l14 53 56 -2 c86 -3 104 -17 124 -93 10 -36 22 -66 28
-66 5 0 7 -4 4 -8 -6 -10 -3 -10 72 -18 l52 -6 0 64 c0 34 4 68 8 74 4 6 28
23 54 38 26 15 57 43 68 62 30 47 56 33 65 -34 7 -60 43 -180 56 -188 13 -7
56 32 65 58 3 10 10 15 16 12 6 -4 8 -2 5 3 -4 6 0 24 8 39 8 16 18 44 21 62
5 23 16 38 38 49 17 10 36 16 41 14 6 -1 7 0 3 4 -3 4 -2 21 4 38 5 18 11 43
13 56 4 25 -26 94 -45 106 -6 4 -7 11 -4 17 4 6 2 8 -4 4 -10 -6 -62 89 -62
114 0 5 -4 18 -10 28 -20 35 -50 124 -50 149 0 21 4 24 21 20 19 -5 20 -2 16
69 l-4 74 56 26 c68 32 102 38 94 18 -10 -26 21 -11 43 21 12 17 40 50 63 75
22 25 41 50 41 57 0 6 14 22 32 34 25 18 30 20 25 6 -3 -9 -3 -16 1 -15 15 3
60 -21 65 -36 3 -8 31 -27 62 -41 33 -16 53 -31 49 -37 -4 -7 -2 -8 5 -4 12 8
101 -40 141 -77 14 -12 40 -40 59 -62 19 -22 36 -39 38 -37 12 9 23 -3 33 -35
7 -21 22 -48 33 -61 19 -20 21 -33 18 -98 l-3 -74 33 0 c20 0 42 9 56 22 l23
21 0 -29 c0 -42 13 -56 46 -51 85 12 143 66 169 156 7 23 8 22 51 -20 39 -38
47 -42 64 -31 22 14 50 6 50 -14 0 -8 16 -29 37 -47 50 -44 158 -143 211 -194
24 -23 45 -41 48 -41 2 0 30 -3 62 -8 31 -4 60 -7 65 -6 4 1 7 -2 7 -6 0 -5
26 -10 58 -11 78 -2 124 -16 152 -46 28 -30 34 -31 71 -4 26 19 29 26 29 80 0
54 2 59 22 59 22 0 86 -43 101 -68 13 -20 57 -34 72 -22 7 6 18 30 25 55 15
52 2 120 -31 167 -11 15 -17 28 -12 28 4 0 -7 10 -25 22 -20 13 -31 26 -28 35
3 8 2 12 -2 10 -14 -9 -53 13 -46 24 4 7 3 9 -3 6 -6 -4 -16 0 -23 8 -16 19
-67 19 -100 0 -32 -19 -80 -19 -106 -1 -12 8 -41 20 -65 26 -28 7 -63 28 -96
58 -29 26 -73 64 -98 85 -54 46 -64 76 -60 184 3 91 14 113 74 151 45 29 208
178 298 273 17 19 42 43 55 54 37 31 54 63 73 140 10 39 21 75 25 80 7 10 5
156 -3 205 -24 144 -20 127 -36 165 -11 24 -11 42 -1 90 19 99 22 178 6 198
-17 22 -88 35 -158 30 -96 -8 -112 0 -141 67 -14 32 -34 67 -45 78 -18 18 -18
21 -1 108 31 162 6 616 -42 742 l-10 26 -13 -25 c-7 -14 -16 -46 -19 -71 -4
-26 -22 -75 -40 -110 -19 -35 -37 -83 -41 -107 -3 -24 -14 -57 -23 -75 -9 -17
-29 -64 -43 -105 -26 -74 -50 -103 -50 -61 0 12 -4 18 -10 15 -5 -3 -10 0 -10
8 0 8 -8 21 -18 30 -15 14 -18 28 -14 79 2 35 9 79 15 98 6 19 11 40 11 47 1
6 34 44 75 83 l74 71 -6 114 c-8 132 -40 338 -65 410 -9 28 -17 55 -17 61 0
15 -37 85 -53 102 -7 8 -10 17 -7 22 3 4 -2 11 -11 14 -9 3 -14 13 -10 21 3 8
0 17 -6 21 -7 5 -8 2 -3 -7 4 -8 -2 -4 -14 8 -11 12 -21 25 -21 29 0 7 -29 44
-87 112 -37 43 -69 56 -59 25 3 -10 10 -65 17 -123 26 -230 -10 -593 -62 -620
-16 -9 -27 -7 -53 8 -93 55 -248 83 -262 47 -4 -8 19 -42 55 -85 34 -39 61
-77 61 -85 0 -8 4 -15 8 -15 5 0 24 -21 43 -47 38 -53 54 -119 32 -128 -9 -3
-11 0 -7 7 5 7 2 9 -8 5 -17 -6 -58 31 -58 52 0 10 -3 11 -13 3 -7 -6 -22 -9
-33 -7 -39 10 -72 -38 -46 -68 15 -17 15 -18 -8 -13 -38 7 -60 17 -55 26 2 4
-15 6 -38 5 -23 -2 -45 2 -49 9 -5 8 -13 8 -28 -2 -15 -9 -26 -10 -40 -2 -11
6 -20 8 -20 5 0 -2 -24 5 -52 16 -50 19 -155 32 -163 19 -5 -8 -154 -11 -176
-4 -9 2 -19 17 -22 32 -11 56 -87 123 -217 192 l-65 35 -135 -1 c-117 0 -148
-4 -232 -28 -88 -26 -96 -30 -85 -47 6 -10 13 -16 15 -14 2 2 25 -8 50 -22 26
-14 76 -41 112 -60 85 -46 172 -112 165 -123 -3 -6 0 -7 8 -4 9 3 23 -6 36
-21 l20 -27 -59 -61 c-33 -33 -60 -64 -60 -69 0 -5 -5 -6 -12 -2 -6 4 -8 3 -5
-4 4 -5 -9 -29 -28 -52 -19 -23 -42 -54 -51 -69 -9 -15 -29 -33 -45 -40 -16
-7 -56 -33 -89 -57 -63 -46 -79 -71 -35 -54 15 6 25 6 25 0 0 -5 15 -10 32
-12 29 -3 23 -7 -52 -35 -47 -18 -94 -39 -105 -47 -20 -15 -20 -15 0 -16 16
-1 15 -4 -10 -18 -16 -9 -34 -16 -39 -17 -5 0 -16 -16 -24 -35 -10 -26 -11
-32 -1 -22 7 6 17 12 22 12 5 0 -12 -21 -38 -47 -26 -27 -59 -63 -72 -80 -14
-18 -30 -30 -36 -26 -5 3 -7 1 -4 -4 4 -6 0 -16 -8 -23 -8 -7 -15 -9 -15 -4
-1 35 -13 125 -21 154 -5 19 -9 75 -9 124 0 69 -4 94 -16 108 -15 16 -16 29
-5 125 7 60 16 126 21 148 16 75 39 200 39 215 0 8 22 70 50 137 28 67 48 128
45 136 -3 8 1 21 8 28 8 8 13 32 13 54 -2 36 3 45 52 93 30 29 74 65 96 80 23
15 44 29 47 32 18 19 63 40 73 34 7 -4 9 -3 4 1 -6 8 55 44 76 45 5 0 32 11
60 24 74 34 123 52 192 72 71 21 73 23 57 33 -17 10 32 44 64 44 14 0 21 4 17
10 -3 5 -1 7 5 3 10 -6 60 34 139 111 18 17 33 40 33 52 0 12 4 21 9 21 5 0
19 25 32 57 18 46 22 72 20 141 -1 63 2 90 14 108 l15 24 -65 0 c-48 0 -67 -4
-71 -15z"/>
</g>
</svg>
